<?xml version="1.0" encoding="UTF-8"?>
<svg version="1.1" xmlns="http://www.w3.org/2000/svg" width="1914" height="935">
<path d="M0 0 C631.62 0 1263.24 0 1914 0 C1914 308.55 1914 617.1 1914 935 C1282.38 935 650.76 935 0 935 C0 626.45 0 317.9 0 0 Z " fill="#FEFEFE" transform="translate(0,0)"/>
<path d="M0 0 C6.1489869 2.38287772 15.02984488 2.18094901 21.24707031 0.05517578 C24.0183318 -1.17770826 26.6588193 -2.55114025 29.27246094 -4.08935547 C38.84209476 -9.70720875 48.49011631 -10.73389217 59.44140625 -10.63671875 C60.63443359 -10.62914551 61.82746094 -10.62157227 63.05664062 -10.61376953 C71.4113665 -10.45697536 78.43458897 -9.81726546 86.06640625 -6.19921875 C87.00871094 -5.78671875 87.95101563 -5.37421875 88.921875 -4.94921875 C101.42292501 1.12025657 109.40689116 11.42313674 115.06640625 23.80078125 C116.35747518 27.76527574 117.34464494 31.69576378 118.06640625 35.80078125 C119.01 35.47722656 119.95359375 35.15367188 120.92578125 34.8203125 C125.70244231 33.46292464 130.37906754 33.45733169 135.31640625 33.48828125 C136.71910767 33.49674072 136.71910767 33.49674072 138.15014648 33.50537109 C144.85680539 33.62336997 150.8244423 34.18763678 157.06640625 36.80078125 C158.05769531 37.21457031 159.04898437 37.62835938 160.0703125 38.0546875 C173.77207678 44.3482388 182.98660981 54.39522976 188.33984375 68.4765625 C192.58426724 82.05415378 191.1589812 97.0507483 185.57421875 109.94140625 C184.06640625 112.80078125 184.06640625 112.80078125 182.06640625 113.80078125 C182.040625 112.86878906 182.01484375 111.93679687 181.98828125 110.9765625 C181.23840574 94.12140612 176.42416371 79.91708552 163.9140625 68.0078125 C150.20386735 57.38194109 137.15856272 54.35746883 120.06640625 54.80078125 C120.84242188 55.06890625 121.6184375 55.33703125 122.41796875 55.61328125 C139.79591958 61.91745434 155.27780218 70.81111209 164.06640625 87.80078125 C166.86460454 94.47102514 168.20849261 100.87092216 168.12890625 108.11328125 C168.11988281 109.18191406 168.11085938 110.25054687 168.1015625 111.3515625 C168.08416016 112.56392578 168.08416016 112.56392578 168.06640625 113.80078125 C166.57281293 110.94461157 165.41548347 108.07806413 164.31640625 105.05078125 C162.56212667 100.55876231 160.30358959 97.09718093 157.23828125 93.39453125 C156.06640625 91.80078125 156.06640625 91.80078125 156.06640625 89.80078125 C155.40640625 89.80078125 154.74640625 89.80078125 154.06640625 89.80078125 C153.90140625 90.50203125 153.73640625 91.20328125 153.56640625 91.92578125 C150.99442379 96.8554143 146.38421703 99.49329825 141.62890625 102.17578125 C133.16414114 104.24035811 127.45809773 102.12160299 120.06640625 97.80078125 C120.06640625 97.14078125 120.06640625 96.48078125 120.06640625 95.80078125 C121.26265625 95.38828125 122.45890625 94.97578125 123.69140625 94.55078125 C130.18157483 92.08543453 134.93291042 89.17968348 138.06640625 82.80078125 C138.97050092 78.49092087 139.573145 74.17522969 140.06640625 69.80078125 C139.40640625 69.80078125 138.74640625 69.80078125 138.06640625 69.80078125 C137.66035156 70.90099609 137.66035156 70.90099609 137.24609375 72.0234375 C133.66642066 80.45107844 128.18013218 84.8521067 120.03125 88.70703125 C114.40813337 90.78143528 108.94945881 90.92882278 103.02026367 91.09033203 C84.17144327 91.43184189 84.17144327 91.43184189 67.41015625 99.3046875 C63.87215282 103.07266115 61.55571275 107.40407978 59.28417969 112.02612305 C56.57515248 117.45265132 53.65975165 121.38480149 47.88381958 123.6608429 C40.38029355 125.90147726 33.16876311 126.19054291 25.3963356 126.11977577 C23.13787061 126.10105395 20.88031349 126.1041757 18.62179565 126.11283875 C12.208003 126.13438259 5.7945688 126.12419944 -0.61914062 126.08569336 C-18.84146765 125.9889092 -35.66357808 126.10665221 -52.93359375 132.80078125 C-52.93359375 133.46078125 -52.93359375 134.12078125 -52.93359375 134.80078125 C-51.18557229 135.61752921 -49.43509186 136.42901576 -47.68359375 137.23828125 C-46.22179687 137.91697266 -46.22179687 137.91697266 -44.73046875 138.609375 C-37.31005969 141.77030344 -29.34792311 142.05473279 -21.80859375 139.05078125 C-20.17418816 138.32150534 -18.548789 137.57166989 -16.93359375 136.80078125 C-4.3519499 130.97128627 7.23502168 129.16623181 21.06640625 131.80078125 C20.06640625 133.80078125 20.06640625 133.80078125 18.28125 134.40625 C17.15396484 134.69435547 17.15396484 134.69435547 16.00390625 134.98828125 C6.86652902 137.92788121 2.58039462 144.31397747 -2.23828125 152.22265625 C-7.75151756 160.60684049 -17.77920045 165.65120317 -27.30859375 168.17578125 C-47.41630913 171.58083109 -67.40566021 164.2611083 -85.5703125 156.18359375 C-95.28138 152.19089004 -104.99622189 153.16320586 -114.78515625 156.4765625 C-123.67586192 160.21595359 -130.83262197 166.10599794 -134.93823242 174.96972656 C-135.790067 177.23027787 -136.56130648 179.50363543 -137.30859375 181.80078125 C-143.76673705 200.37521592 -152.96108586 222.29631644 -171.52587891 231.45361328 C-175.30990865 232.94954938 -179.01594097 233.7938886 -183.01171875 234.44921875 C-183.79032257 234.57769699 -184.56892639 234.70617523 -185.37112427 234.83854675 C-195.68665451 236.39143121 -206.09246878 236.19237433 -216.5 236.08569336 C-229.94331647 235.97929156 -239.77727855 237.2052306 -250.30859375 246.42578125 C-259.44591423 256.55504467 -260.9025994 266.72116364 -260.93359375 279.80078125 C-264.34691743 277.27515081 -266.6811827 275.11455129 -268.68359375 271.36328125 C-269.0909375 270.62207031 -269.49828125 269.88085938 -269.91796875 269.1171875 C-273.35059945 261.28814902 -272.92376578 252.51264093 -269.87109375 244.67578125 C-262.6304723 229.08525094 -250.54734833 222.76701267 -234.93359375 216.80078125 C-227.14506175 214.03988094 -219.93299411 212.74732977 -211.68359375 212.78125 C-210.34554687 212.78547974 -210.34554687 212.78547974 -208.98046875 212.78979492 C-208.305 212.79342041 -207.62953125 212.7970459 -206.93359375 212.80078125 C-207.70428558 196.74622347 -207.70428558 196.74622347 -211.05859375 181.11328125 C-214.64107416 169.10859217 -215.18082132 154.6608942 -209.41015625 143.296875 C-208.92289063 142.47316406 -208.435625 141.64945313 -207.93359375 140.80078125 C-207.48757812 140.00800781 -207.0415625 139.21523437 -206.58203125 138.3984375 C-200.4027808 128.30105898 -191.71627151 120.69009262 -180.93359375 115.80078125 C-177.5703125 115.11328125 -177.5703125 115.11328125 -174.93359375 114.80078125 C-175.13855469 114.22070312 -175.34351563 113.640625 -175.5546875 113.04296875 C-175.82410156 112.26179688 -176.09351563 111.480625 -176.37109375 110.67578125 C-176.63792969 109.91007812 -176.90476562 109.144375 -177.1796875 108.35546875 C-181.79005803 92.73276239 -179.39038598 76.87310463 -171.87109375 62.73828125 C-164.74902208 51.12686953 -154.22788029 41.49992052 -140.93359375 37.80078125 C-138.94816862 37.58506101 -136.96178362 37.37211732 -134.97045898 37.22021484 C-121.91892236 36.19731632 -112.59103234 31.78140914 -103.93359375 21.80078125 C-103.07894531 20.84171875 -103.07894531 20.84171875 -102.20703125 19.86328125 C-99.74641725 17.07683252 -97.32334611 14.26002434 -94.91796875 11.42578125 C-87.4884638 2.87383311 -78.78916076 -6.24825266 -67.93359375 -10.19921875 C-66.49886719 -10.75222656 -66.49886719 -10.75222656 -65.03515625 -11.31640625 C-41.79978842 -19.16985225 -20.06796629 -12.44619323 0 0 Z " fill="#030303" transform="translate(347.93359375,34.19921875)"/>
<path d="M0 0 C-1.63567595 3.40703009 -3.58288299 6.4747721 -5.68359375 9.609375 C-9.22992016 16.04958795 -10.58489559 21.91320454 -10.5625 29.25 C-10.56008301 30.08047852 -10.55766602 30.91095703 -10.55517578 31.76660156 C-10.33239303 39.26549823 -8.26722106 44.79764381 -4 51 C-3.59007812 51.67160156 -3.18015625 52.34320313 -2.7578125 53.03515625 C2.12906534 59.94052711 11.3014686 62.91469674 18.78125 66.234375 C31.00227525 71.88079806 39.99400222 81.61884065 45.23828125 93.921875 C48.52073658 102.87708647 47.65169275 112.29105729 44 121 C38.18740208 132.73384252 30.30743541 140.30118741 19.26953125 146.95703125 C13.79139236 150.38004994 9.98629724 153.90171146 6.375 159.25 C5.98256104 159.82991699 5.59012207 160.40983398 5.18579102 161.00732422 C0.03828815 168.78553192 -2.20160981 175.59429564 -1 185 C0.79882406 191.16578057 5.14804543 195.80488034 9.1640625 200.671875 C15.12089564 208.22564639 16.02221839 216.59611391 15.3125 225.95996094 C14.03459052 234.30231374 8.88131884 242.60697896 2.21875 247.66796875 C-7.34220796 253.40791006 -17.18901777 254.41772875 -28 252 C-25.8594516 258.46389288 -23.70561056 261.92113898 -17.609375 265.125 C-17.07828125 265.41375 -16.5471875 265.7025 -16 266 C-16 266.33 -16 266.66 -16 267 C-24.25706495 266.81387763 -29.78707694 265.10057844 -35.7578125 259.2890625 C-40.64891156 253.87813649 -42.27426388 249.57606212 -42.125 242.1875 C-42.10695313 241.02605469 -42.08890625 239.86460937 -42.0703125 238.66796875 C-42.04710937 237.78753906 -42.02390625 236.90710938 -42 236 C-41.13117188 236.15855469 -40.26234375 236.31710937 -39.3671875 236.48046875 C-30.45143283 237.85610143 -23.81035632 237.6283593 -16 233 C-15.34 233 -14.68 233 -14 233 C-13.5359375 231.824375 -13.5359375 231.824375 -13.0625 230.625 C-12 228 -12 228 -11 226 C-10.36442117 218.0604743 -9.88360772 210.49881582 -15 204 C-16.96802763 201.99499482 -18.99810146 200.06744555 -21.03515625 198.1328125 C-28.30347729 190.24314394 -30.53233842 179.63336397 -30.30859375 169.22265625 C-29.16376178 157.26713256 -24.68081553 150.10009747 -16.0078125 142.3046875 C-4.74044423 132.16809454 9.4781206 118.72186345 11.23828125 102.8515625 C11.42234876 97.32953717 10.74533909 94.3215451 7 90 C3.04856932 86.09640746 -0.87541269 83.24981882 -6 81 C-5.83991455 81.57057129 -5.6798291 82.14114258 -5.51489258 82.72900391 C-4.64171552 86.58025711 -4.73248606 90.44021892 -4.6875 94.375 C-4.64399414 95.63183594 -4.64399414 95.63183594 -4.59960938 96.9140625 C-4.5431795 102.43550905 -5.19895208 105.69916031 -9 110 C-11.12109375 111.46875 -11.12109375 111.46875 -13.4375 112.5 C-14.30632812 112.90089844 -15.17515625 113.30179687 -16.0703125 113.71484375 C-17.52050781 114.35099609 -17.52050781 114.35099609 -19 115 C-21.27329681 116.01533558 -23.54408192 117.03631087 -25.8125 118.0625 C-26.87082031 118.52785156 -27.92914063 118.99320312 -29.01953125 119.47265625 C-32.21380959 121.10956691 -34.57910176 122.32757986 -37 125 C-37.23649134 127.96523762 -37.21694666 130.22881538 -36.875 133.125 C-36.813125 133.85332031 -36.75125 134.58164062 -36.6875 135.33203125 C-36.34245116 139.29527706 -36.34245116 139.29527706 -35 143 C-34.7265625 145.2421875 -34.7265625 145.2421875 -34.625 147.875 C-34.57601562 148.73867188 -34.52703125 149.60234375 -34.4765625 150.4921875 C-35.24378179 154.16796949 -36.89171125 154.94257053 -40 157 C-43.60015392 159.2066329 -47.26686425 161.29051912 -50.9375 163.37695312 C-52.03964844 164.01213867 -52.03964844 164.01213867 -53.1640625 164.66015625 C-54.16107178 165.22682007 -54.16107178 165.22682007 -55.17822266 165.80493164 C-57.07424725 167.04870548 -58.52732814 168.27626973 -60 170 C-61.53581491 177.71479119 -59.82039166 184.0055848 -55.765625 190.58984375 C-50.81824823 197.34323196 -44.09540766 201.66907613 -35.87109375 203.46484375 C-34.25510458 203.70316135 -32.62758383 203.86148223 -31 204 C-31.33 204.66 -31.66 205.32 -32 206 C-42.99596262 206.41407391 -52.80609946 206.75126966 -63 202 C-63.96550781 201.55269531 -64.93101562 201.10539063 -65.92578125 200.64453125 C-74.94356176 196.09293162 -81.33394572 190.55933509 -85 181 C-87.40482208 173.20450291 -86.75381801 164.62217523 -83.38671875 157.25 C-79.98045838 151.72322261 -75.03576606 148.44970778 -69.375 145.5 C-63.53007022 142.44125436 -59.68642586 138.00565426 -57 132 C-56.16600125 129.08681086 -56.16600125 129.08681086 -57 126 C-58.81100882 124.49570025 -58.81100882 124.49570025 -61 123.125 C-64.89521321 120.45657102 -64.89521321 120.45657102 -65.875 116.1875 C-65.29936191 110.89566913 -62.26649409 107.03207864 -59 103 C-58.505 102.37996094 -58.01 101.75992188 -57.5 101.12109375 C-53.09675733 96.20047007 -47.8037438 93.59248251 -41.890625 90.7734375 C-38.61589886 88.76434876 -37.46562402 87.53059256 -36 84 C-34.28844927 70.50804604 -38.30197622 59.96968388 -46 49 C-47.30274795 47.63676732 -48.62880308 46.29436261 -50 45 C-48.46807497 40.3249874 -45.91044931 36.97027878 -42.875 33.1875 C-42.3785498 32.56584961 -41.88209961 31.94419922 -41.37060547 31.30371094 C-33.36270187 21.39409195 -14.25824776 0 0 0 Z " fill="#030303" transform="translate(352,246)"/>
<path d="M0 0 C3.66651864 2.25445443 6.67695709 5.04143844 9.7734375 8.015625 C20.33117541 17.9523195 32.30354178 24.90708452 46.36328125 28.453125 C44.6977561 35.44833062 42.26997815 40.20241276 36.36328125 44.453125 C27.36059016 49.87395271 18.55734707 50.48871264 8.36328125 49.453125 C6.00345238 48.82856879 3.82418117 48.03460906 1.55078125 47.15625 C-4.53818367 45.1990827 -10.09451348 45.1587421 -15.8359375 48.08203125 C-19.25611181 50.38827665 -22.45890558 52.82858348 -25.63671875 55.453125 C-26.20100586 55.91283691 -26.76529297 56.37254883 -27.34667969 56.84619141 C-32.70395982 61.23149482 -37.89731248 65.79439833 -43.07421875 70.390625 C-49.1094753 75.69049315 -54.78212397 79.65081711 -62.99609375 79.76171875 C-64.0212207 79.78468018 -65.04634766 79.8076416 -66.10253906 79.83129883 C-67.18631836 79.85087646 -68.27009766 79.8704541 -69.38671875 79.890625 C-93.6561338 80.6098873 -115.74296434 85.45022907 -134.61694336 101.63305664 C-142.36314095 108.11697954 -149.54777381 108.84684559 -159.44921875 108.953125 C-178.50175437 109.46205015 -199.53935571 110.73153399 -214.04077148 124.81689453 C-218.67232745 129.79695038 -221.20532734 135.41543341 -223.94921875 141.578125 C-231.92268133 158.80069583 -242.91530176 173.34154877 -256.63671875 186.453125 C-257.63671875 183.453125 -257.63671875 183.453125 -256.63671875 180.453125 C-256.54399767 178.87319285 -256.5060349 177.28968037 -256.50390625 175.70703125 C-256.50261719 174.78728516 -256.50132812 173.86753906 -256.5 172.91992188 C-256.50386719 171.96150391 -256.50773438 171.00308594 -256.51171875 170.015625 C-256.50591797 168.58379883 -256.50591797 168.58379883 -256.5 167.12304688 C-256.50128906 166.20201172 -256.50257813 165.28097656 -256.50390625 164.33203125 C-256.50503418 163.4922876 -256.50616211 162.65254395 -256.50732422 161.78735352 C-256.63213883 159.53574507 -257.04958131 157.62220904 -257.63671875 155.453125 C-258.28641154 148.43644292 -258.68480557 142.11860405 -254.3125 136.29296875 C-248.9584388 130.41473372 -243.94660035 126.34659253 -236.57421875 123.3515625 C-233.50908045 121.93022821 -232.31623354 120.37672482 -230.63671875 117.453125 C-230.01764855 115.64566111 -229.4150749 113.83250767 -228.82421875 112.015625 C-226.85632233 106.35413838 -224.51671181 103.77795544 -219.63671875 100.453125 C-210.51161565 94.39812511 -210.51161565 94.39812511 -204.63671875 85.453125 C-204.96671875 85.123125 -205.29671875 84.793125 -205.63671875 84.453125 C-206.29671875 85.05125 -206.95671875 85.649375 -207.63671875 86.265625 C-214.36030483 91.16823985 -220.43935335 91.90666776 -228.63671875 91.453125 C-227.69666496 84.45134506 -225.52675499 79.59797702 -220.63671875 74.453125 C-212.86924757 68.62752161 -203.65881955 68.29477163 -194.33203125 68.70703125 C-175.65639247 69.48687294 -161.85456872 67.55806134 -144.57373047 59.71875 C-130.71323285 53.74594704 -114.43675501 48.90795575 -99.75 54.51953125 C-98.29539437 55.16213891 -96.85554538 55.83887256 -95.4296875 56.54296875 C-85.33257135 61.24825837 -73.50157457 60.78561497 -63.01953125 57.34375 C-62.23320312 57.04984375 -61.446875 56.7559375 -60.63671875 56.453125 C-59.58097656 56.10507813 -59.58097656 56.10507813 -58.50390625 55.75 C-52.6316584 53.40110086 -49.53273212 48.96418046 -45.71875 44.078125 C-40.1164711 37.01483903 -33.30566215 33.17511307 -24.32421875 32.03125 C-15.07125522 31.67229883 -6.96426293 33.58403809 1.85546875 36.1640625 C8.49176494 38.1029175 15.01127069 39.6012622 21.92578125 40.078125 C22.95832031 40.15289062 23.99085938 40.22765625 25.0546875 40.3046875 C25.81652344 40.35367188 26.57835937 40.40265625 27.36328125 40.453125 C18.95350217 28.67386489 9.52390329 21.20699885 -3.63671875 15.453125 C-4.3946875 15.09089844 -5.15265625 14.72867188 -5.93359375 14.35546875 C-16.4123456 9.98932214 -28.23984059 11.55856337 -38.51171875 15.453125 C-52.87649802 20.78276446 -66.78499777 18.50091332 -81.76171875 16.953125 C-84.37760096 16.69527995 -86.99348629 16.43746658 -89.609375 16.1796875 C-93.53681682 15.79216199 -97.42396707 15.34919726 -101.3203125 14.7265625 C-116.36984735 13.18068883 -130.01799223 23.25622277 -142.63671875 30.453125 C-144.47402721 31.4826726 -146.31243169 32.51026881 -148.15234375 33.53515625 C-150.43037223 34.80473761 -152.70780548 36.07492655 -154.97900391 37.35668945 C-163.71096975 42.25328617 -171.57452245 45.39551466 -181.66381836 45.69262695 C-198.58514973 46.23311174 -214.47439539 50.69958035 -229.2265625 59.0859375 C-231.33477604 60.28184469 -233.45845618 61.39179057 -235.63671875 62.453125 C-233.03332835 52.29990243 -226.0953542 44.40783024 -217.2890625 39.015625 C-207.90610428 34.01931127 -199.15232272 32.35427621 -188.63671875 32.015625 C-173.90647276 31.45778363 -164.37284384 25.73461675 -152.13818359 18.01904297 C-147.79391019 15.29952612 -143.40378598 12.65700237 -139.01171875 10.015625 C-138.19517822 9.51998047 -137.3786377 9.02433594 -136.53735352 8.51367188 C-126.47946463 2.45642011 -119.75370353 -0.91121777 -107.63671875 0.453125 C-104.84769916 1.25501703 -102.2460569 2.2719848 -99.55859375 3.36328125 C-89.24899517 7.20870639 -78.65401035 7.74164011 -67.76171875 7.828125 C-66.19333252 7.84891113 -66.19333252 7.84891113 -64.59326172 7.87011719 C-55.57283079 7.81566502 -47.99963702 5.81186883 -39.88671875 1.890625 C-28.00989387 -3.81665163 -12.40422362 -5.47869286 0 0 Z " fill="#FAFAFA" transform="translate(415.63671875,54.546875)"/>
<path d="M0 0 C0.89332031 0.22816406 0.89332031 0.22816406 1.8046875 0.4609375 C2.7946875 -0.1990625 3.7846875 -0.8590625 4.8046875 -1.5390625 C10.34714704 -1.99336246 14.07983688 -1.80145935 18.8046875 1.4609375 C20.1796875 4.1484375 20.1796875 4.1484375 20.8046875 6.4609375 C21.38476562 6.34234375 21.96484375 6.22375 22.5625 6.1015625 C26.77874175 5.40581304 29.14085541 5.16033429 33.1171875 6.9609375 C38.46121999 11.93213051 40.8439953 17.7210793 41.2421875 24.9609375 C41.20300503 31.5435927 38.34163354 37.02212996 34.8046875 42.4609375 C33.8146875 43.1209375 32.8246875 43.7809375 31.8046875 44.4609375 C32.02125 43.77128906 32.2378125 43.08164062 32.4609375 42.37109375 C34.94070993 34.00186179 35.56499384 27.04243093 33.8046875 18.4609375 C33.1446875 18.4609375 32.4846875 18.4609375 31.8046875 18.4609375 C31.7634375 19.0178125 31.7221875 19.5746875 31.6796875 20.1484375 C30.36509236 23.62272465 27.9309304 25.62115739 24.8046875 27.4609375 C20.9296875 28.2734375 20.9296875 28.2734375 17.8046875 28.4609375 C19.6796875 23.5859375 19.6796875 23.5859375 20.8046875 22.4609375 C20.87695252 20.60806248 20.8884997 18.75259872 20.8671875 16.8984375 C20.85816406 15.88652344 20.84914063 14.87460937 20.83984375 13.83203125 C20.82824219 13.04957031 20.81664062 12.26710938 20.8046875 11.4609375 C19.6909375 12.2653125 19.6909375 12.2653125 18.5546875 13.0859375 C10.73414254 18.24416928 3.26711082 22.14552339 -6.1953125 22.4609375 C-6.1953125 21.8009375 -6.1953125 21.1409375 -6.1953125 20.4609375 C-5.5353125 20.4609375 -4.8753125 20.4609375 -4.1953125 20.4609375 C-2.72879233 17.58074474 -1.37483376 14.66785235 -0.0703125 11.7109375 C0.28289062 10.91171875 0.63609375 10.1125 1 9.2890625 C1.26554688 8.68578125 1.53109375 8.0825 1.8046875 7.4609375 C-1.70439366 9.39331473 -5.20969214 11.33236559 -8.71166992 13.27758789 C-9.90271374 13.93794778 -11.09476297 14.59649774 -12.2878418 15.25317383 C-14.00574798 16.19913217 -15.71972208 17.15222024 -17.43359375 18.10546875 C-18.46524658 18.67628174 -19.49689941 19.24709473 -20.55981445 19.83520508 C-22.8362584 21.23945151 -24.54620041 22.37129483 -26.1953125 24.4609375 C-26.4784065 27.31684391 -26.4784065 27.31684391 -26.3828125 30.5859375 C-26.85022027 40.35069552 -30.93515497 50.64158831 -37.45703125 58.01953125 C-39.88256596 61.42618113 -39.81584835 63.3565361 -39.1953125 67.4609375 C-37.68968181 69.9837309 -36.26235903 72.07305042 -34.4453125 74.3359375 C-29.7013747 80.61321051 -25.93025125 86.19829273 -24.5703125 94.0859375 C-25.59232639 99.60481249 -29.12015357 102.89142751 -33.52783203 106.22509766 C-36.18018173 108.01940844 -38.86212886 109.75211177 -41.5703125 111.4609375 C-53.84899615 118.55824279 -53.84899615 118.55824279 -62.1953125 129.4609375 C-63.4061965 143.70848168 -60.74326246 153.6812122 -52.9375 165.67578125 C-49.39989276 171.33119372 -49.63195936 176.97047459 -50.1953125 183.4609375 C-53.15371549 195.12549787 -60.01675169 203.58278016 -70.1796875 209.64453125 C-74.96898028 212.10219465 -79.57401338 212.84620369 -84.8828125 213.3984375 C-91.05673602 214.10914942 -94.23456552 214.62002452 -98.1953125 219.4609375 C-102.21237848 226.26356018 -102.15377968 232.75326397 -101.1953125 240.4609375 C-98.44606539 248.42750582 -93.23560201 252.35196853 -86.1953125 256.4609375 C-84.84932172 257.44383455 -83.51202158 258.43914742 -82.1953125 259.4609375 C-96.47767841 260.23179983 -108.14439591 257.93029175 -119.1953125 248.4609375 C-124.9400092 243.19090853 -127.67993336 237.47872609 -128.4765625 229.72265625 C-128.78257548 220.50401519 -126.61742994 214.18516927 -120.34765625 207.3984375 C-117.14431072 204.51484516 -113.57194999 202.39337081 -109.8984375 200.16015625 C-101.1728099 194.67511578 -93.03653567 186.16705264 -89.1953125 176.4609375 C-88.13605148 168.93460917 -89.3209528 162.41626499 -91.6953125 155.3359375 C-95.18299945 144.70286407 -96.43142365 132.44710733 -92.5703125 121.7109375 C-91.4296875 119.4609375 -91.4296875 119.4609375 -90.1953125 117.4609375 C-89.82921875 116.8215625 -89.463125 116.1821875 -89.0859375 115.5234375 C-84.66878523 109.19763919 -77.08462504 107.17807594 -70.1953125 104.4609375 C-63.74715663 101.75651164 -60.49868777 97.48017498 -57.1953125 91.4609375 C-55.65585814 86.84257443 -55.53427657 82.278061 -56.1953125 77.4609375 C-57.63768993 75.09564025 -58.91248497 74.11598746 -61.1953125 72.4609375 C-61.14890625 73.34136719 -61.1025 74.22179687 -61.0546875 75.12890625 C-61.01859375 76.29035156 -60.9825 77.45179688 -60.9453125 78.6484375 C-60.89890625 79.79699219 -60.8525 80.94554687 -60.8046875 82.12890625 C-61.28018987 86.18494146 -62.23734521 87.68104182 -65.1953125 90.4609375 C-67.859375 91.61328125 -67.859375 91.61328125 -70.8203125 92.3984375 C-81.11901412 95.55570369 -88.89824625 100.5863956 -95.1953125 109.4609375 C-96.76255769 112.75111448 -97.49619774 115.65415596 -97.8203125 119.2734375 C-97.89507812 120.06363281 -97.96984375 120.85382813 -98.046875 121.66796875 C-98.09585937 122.25964844 -98.14484375 122.85132813 -98.1953125 123.4609375 C-104.63595119 121.64950787 -109.56115051 116.91218048 -113.1953125 111.4609375 C-115.77199804 103.95125531 -115.51223533 94.3186988 -112.3203125 87.0859375 C-106.17376159 76.84729927 -96.20665207 71.36305962 -86.06420898 65.70947266 C-79.74856971 62.34709869 -79.74856971 62.34709869 -76.1953125 56.4609375 C-75.93963182 51.87794565 -76.2238943 47.31781769 -76.48828125 42.74023438 C-76.70443145 35.85632055 -75.51024401 31.83394242 -71.1953125 26.4609375 C-70.72134033 25.86240967 -70.24736816 25.26388184 -69.7590332 24.6472168 C-68.60032339 23.22745298 -67.40207277 21.84009209 -66.1953125 20.4609375 C-65.5353125 20.7909375 -64.8753125 21.1209375 -64.1953125 21.4609375 C-65.20442708 23.21875 -66.21354167 24.9765625 -67.22265625 26.734375 C-70.44005271 32.44557674 -70.04846392 40.02442058 -69.1953125 46.4609375 C-68.14336844 49.06505077 -67.04199756 50.90643323 -65.2890625 53.078125 C-64.1953125 54.4609375 -64.1953125 54.4609375 -64.1953125 56.4609375 C-63.5353125 56.4609375 -62.8753125 56.4609375 -62.1953125 56.4609375 C-62.25332031 55.6875 -62.31132812 54.9140625 -62.37109375 54.1171875 C-62.68766681 46.80887234 -62.16437122 41.99936753 -57.1953125 36.4609375 C-55.26092263 34.70064272 -53.23550734 33.10196378 -51.1953125 31.4609375 C-48.81513968 28.37552829 -47.87958946 25.41734378 -46.8828125 21.7109375 C-44.13738256 12.1868429 -37.83883575 4.17979777 -29.13671875 -0.69140625 C-20.52566915 -4.4511603 -8.39875477 -3.70812947 0 0 Z " fill="#040404" transform="translate(482.1953125,331.5390625)"/>
<path d="M0 0 C6.13897548 0.5940944 10.78543456 2.76500662 14.8125 7.5 C17.82710466 11.7021762 17.82875879 13.05802681 17.375 18.125 C17.24139086 22.64952595 17.24139086 22.64952595 19.62890625 26.25390625 C21.19494584 27.22638769 22.79390558 28.14739654 24.41796875 29.01953125 C26.92611836 30.40320043 28.71710463 31.8682232 30.75 33.875 C31.28367187 34.4009375 31.81734375 34.926875 32.3671875 35.46875 C36.67135121 40.9102834 37.17727289 45.12036259 36.8125 51.75 C36.63995721 58.47132611 37.14811506 62.6824105 40.875 68.375 C41.93781587 70.40573746 42.97797319 72.44843147 44 74.5 C44.49757813 75.47195313 44.99515625 76.44390625 45.5078125 77.4453125 C48.50639223 83.8708405 49.23953471 89.1809854 49.25 96.1875 C49.27449219 97.03892578 49.29898438 97.89035156 49.32421875 98.76757812 C49.35982607 106.55964577 47.00242008 112.21426159 42.6875 118.625 C35.8693736 125.29161248 29.29543629 127.18130879 19.875 127.375 C21.87204988 125.37795012 23.21409237 124.68691187 25.75 123.5625 C30.35675287 121.30919697 32.64101359 118.59617553 35.125 114.125 C37.58483641 105.10559982 34.89663329 97.15338314 30.671875 89.07421875 C28.20016418 84.92080594 25.35416102 81.75542022 21.875 78.375 C21.92140625 79.49777344 21.9678125 80.62054688 22.015625 81.77734375 C22.31011043 91.68688915 22.48002836 99.24190768 15.55859375 106.95703125 C13.05725924 109.50309902 10.48742669 111.94371229 7.875 114.375 C6.20456403 116.03788882 4.53761318 117.70428968 2.875 119.375 C2.25496094 119.97183594 1.63492188 120.56867188 0.99609375 121.18359375 C-5.44152293 127.25307681 -5.44152293 127.25307681 -8.609375 135.29296875 C-8.46348142 141.30378434 -4.75132086 146.56070018 -1.9375 151.6875 C-0.77670491 153.84991761 0.38345939 156.01267395 1.54296875 158.17578125 C2.10491943 159.21903564 2.66687012 160.26229004 3.24584961 161.3371582 C4.76804594 164.17556505 6.2846992 167.01483494 7.765625 169.875 C8.16168945 170.63425781 8.55775391 171.39351562 8.96582031 172.17578125 C11.14290215 177.44193411 10.48927732 181.82595285 8.4375 187 C2.00119882 196.61006348 -10.28794861 201.75921286 -21.2890625 204.02734375 C-31.94087535 205.3331445 -42.44490425 204.10749126 -52.125 199.375 C-52.125 199.045 -52.125 198.715 -52.125 198.375 C-51.073125 198.33632813 -51.073125 198.33632813 -50 198.296875 C-41.26524804 197.77468874 -34.50398543 195.58158042 -28.125 189.375 C-24.46411004 184.93541245 -22.13119492 180.66984584 -22.42578125 174.80859375 C-23.65407268 170.5335906 -26.40119452 167.35901962 -29.1796875 163.953125 C-32.99527214 158.89632608 -33.42147943 154.23618907 -33.875 148.0625 C-34.7622887 138.16072484 -37.68136087 129.26227826 -42.125 120.375 C-43.07596511 114.56354652 -42.0946955 111.75083967 -38.6875 106.9375 C-31.97096584 98.37303052 -24.01856001 90.69333476 -15.3984375 84.04296875 C-10.59609888 80.31701637 -8.37472057 76.24758072 -7.125 70.375 C-6.0225168 59.47737765 -9.83877468 51.21310919 -15.69921875 42.234375 C-17.34335363 38.93709628 -17.55111624 37.01413066 -17.125 33.375 C-16.2421875 31.14453125 -16.2421875 31.14453125 -15 29.1875 C-14.60554688 28.53394531 -14.21109375 27.88039063 -13.8046875 27.20703125 C-10.51115393 23.61478185 -7.15722357 22.46503819 -2.36328125 22.046875 C-0.42001953 22.08554687 -0.42001953 22.08554687 1.5625 22.125 C2.86574219 22.14046875 4.16898437 22.1559375 5.51171875 22.171875 C8.875 22.375 8.875 22.375 11.875 23.375 C8.27907717 13.20998909 4.38311284 7.70709306 -5.125 2.375 C-3.125 0.375 -3.125 0.375 0 0 Z " fill="#030303" transform="translate(475.125,368.625)"/>
<path d="M0 0 C0.33 0 0.66 0 1 0 C1.98279122 22.02359518 -0.848245 40.80035819 -12 60 C-12.49371094 60.86882812 -12.98742187 61.73765625 -13.49609375 62.6328125 C-20.59595907 74.177636 -30.3539427 80.80352296 -42 87 C-47.69480915 90.1940714 -47.69480915 90.1940714 -52 95 C-54.27141334 107.26935565 -48.65995475 116.76398037 -42.26171875 126.69921875 C-39.21978466 130.85919067 -35.79181472 134.10009574 -31.875 137.4375 C-25.98651056 142.6437864 -22.47922614 147.475693 -21.63671875 155.4296875 C-21.49930758 162.15560243 -21.94958501 168.57927191 -24 175 C-24.25652344 175.80953125 -24.51304687 176.6190625 -24.77734375 177.453125 C-28.46952268 187.78488749 -35.09778429 194.61702713 -43.8125 201 C-45.41103987 202.20544032 -47.00740981 203.41376374 -48.6015625 204.625 C-49.36114258 205.20121094 -50.12072266 205.77742187 -50.90332031 206.37109375 C-54.42861677 209.10988951 -57.69831247 212.07868125 -60.96484375 215.12109375 C-62.83892361 216.85129032 -64.76878553 218.45784465 -66.75 220.0625 C-71.01288535 223.7482251 -75.22491029 227.68925968 -76.546875 233.3359375 C-76.79941596 237.55898352 -76.42014692 239.4478069 -73.8125 242.875 C-71.0676247 245.0272716 -71.0676247 245.0272716 -68.1875 246.6875 C-67.465625 247.120625 -66.74375 247.55375 -66 248 C-66 248.66 -66 249.32 -66 250 C-72.58432687 251.87260672 -79.7563756 251.87332089 -86.109375 249.1875 C-90.64623507 246.33790194 -94.31075417 242.06773748 -96 237 C-96.86941584 228.14437868 -96.19830737 221.3263622 -91 214 C-83.78085224 206.3661637 -75.10469394 200.85161311 -66.3125 195.25 C-63.76504866 193.61228414 -61.22054352 191.97001492 -58.67578125 190.328125 C-58.07871368 189.94426636 -57.48164612 189.56040771 -56.8664856 189.16491699 C-52.82025806 186.55639871 -48.87366414 183.85733547 -45 181 C-45.61133789 181.16298584 -46.22267578 181.32597168 -46.85253906 181.49389648 C-49.22480095 182.05298003 -51.31647115 182.09828719 -53.75 182.0625 C-54.54921875 182.05347656 -55.3484375 182.04445313 -56.171875 182.03515625 C-57.07679688 182.01775391 -57.07679688 182.01775391 -58 182 C-57.29875 181.360625 -56.5975 180.72125 -55.875 180.0625 C-50.7047303 174.9070025 -46.64475073 168.86850438 -45.4375 161.625 C-45.6247181 150.24629999 -58.97389483 136.98770714 -65.98046875 128.640625 C-75.86278797 116.68585472 -79.07864703 104.2243323 -78 89 C-75.56535634 77.32544367 -68.65018617 69.48843225 -58.96655273 62.96582031 C-52.93870654 59.12655919 -47.36767669 57.58075986 -40.3984375 56.37890625 C-29.76244356 54.49256264 -21.77238128 52.23194728 -15.1875 43.25 C-14.09416386 41.51909782 -13.03025367 39.76917597 -12 38 C-11.55011719 37.26265625 -11.10023438 36.5253125 -10.63671875 35.765625 C-4.66466208 25.04180806 -2.12646346 11.9855213 0 0 Z " fill="#040404" transform="translate(217,232)"/>
<path d="M0 0 C5.4184478 1.56124767 8.94662225 4.32232687 11.98046875 9.09765625 C15.20122946 15.31825907 16.72478491 21.21897957 15.21484375 28.26953125 C14.72590781 30.68134133 14.42700129 32.60947047 14.6875 35.0625 C16.2335776 37.22446016 17.87540621 38.77264608 19.92578125 40.45703125 C23.44904876 43.66781384 23.90890231 46.7452708 24.125 51.375 C24.38431445 55.01500653 24.71532954 57.12372499 26.25 60.5 C28.34328766 65.68771289 28.37876069 70.54009516 27.6875 76.0625 C24.9024155 81.83897155 20.73495861 85.34695968 14.875 87.8125 C10.62951185 89.2759069 7.15957333 89.51728712 2.6875 89.0625 C0.6875 87.9375 0.6875 87.9375 -0.3125 86.0625 C-0.9375 83.4375 -0.9375 83.4375 -0.3125 80.0625 C1.34542489 77.73104312 3.15582934 75.57644751 4.99609375 73.38671875 C7.437592 70.03177311 8.02333744 67.12127122 8.6875 63.0625 C7.5325 63.5575 6.3775 64.0525 5.1875 64.5625 C-3.0235348 67.54833084 -8.48154551 65.99496563 -16.2890625 62.640625 C-19.23558185 61.10264849 -21.43717905 59.34453141 -24 57.25 C-34.54483041 50.21500413 -52.11063957 53.09418317 -64.0625 55.25 C-68.95885289 56.30977253 -73.38392379 57.81794432 -78 59.75 C-84.88244254 62.58344338 -92.22176187 63.6915362 -99.4609375 61.375 C-101.125 60.5625 -101.125 60.5625 -103.3125 59.0625 C-100.7675546 57.36586973 -98.67934153 56.36133265 -95.875 55.25 C-91.82404927 53.42542544 -89.36752185 52.1725437 -87.3125 48.0625 C-87.01307871 45.02611506 -86.87501418 42.05138453 -86.87890625 39 C-85.91172416 33.98399355 -82.41546367 31.84630191 -78.41015625 29 C-77.40855469 28.360625 -76.40695312 27.72125 -75.375 27.0625 C-73.35410806 25.7292555 -71.33326819 24.39593207 -69.3125 23.0625 C-68.68472656 22.65386719 -68.05695313 22.24523437 -67.41015625 21.82421875 C-63.11538685 18.6914294 -61.21137641 14.46726191 -59 9.78125 C-56.83347598 6.29073908 -54.74378444 4.33385672 -51.3125 2.0625 C-48.37402753 1.55535247 -46.1628238 1.34489291 -43.25 1.4375 C-42.5062915 1.44716797 -41.76258301 1.45683594 -40.99633789 1.46679688 C-34.81035455 1.70550992 -29.78404565 3.45346007 -24.1171875 5.93359375 C-20.09062292 7.55431403 -17.59988599 7.73945568 -13.3125 7.0625 C-10.28743326 5.37544355 -7.89671724 3.60902581 -5.375 1.25 C-3.3125 0.0625 -3.3125 0.0625 0 0 Z " fill="#020202" transform="translate(501.3125,155.9375)"/>
<path d="M0 0 C3.55527421 2.35708787 5.39165416 4.79702831 7.14453125 8.6640625 C12.46880259 20.34887276 21.95110736 25.85920282 32.80859375 32.09375 C49.87455892 41.96984102 49.87455892 41.96984102 52.49609375 47.09375 C54.06360239 55.40154578 53.58365461 62.10028753 49.12109375 69.40625 C44.28076769 76.30524638 39.02124213 79.77286721 31.12109375 82.40625 C21.23764976 83.84384185 13.98425522 77.51157375 6.30859375 71.96875 C2.2477232 69.06999353 -1.93461748 66.58913605 -6.31640625 64.21875 C-6.95731201 63.86449951 -7.59821777 63.51024902 -8.25854492 63.14526367 C-12.20458976 61.04160906 -15.56903397 60.05331279 -20.00390625 59.28125 C-22.64453125 58.42578125 -22.64453125 58.42578125 -24.87890625 56.40625 C-27.40017085 50.27525161 -28.19672506 43.56176613 -29.32861328 37.06835938 C-30.05953033 33.53245895 -31.24887658 30.5273776 -32.69140625 27.21875 C-35.04794698 21.52129078 -35.94004393 16.53053035 -34.87890625 10.40625 C-32.02023948 4.09336089 -26.35970606 0.42144989 -20.50390625 -2.96875 C-12.83976094 -4.7935465 -6.86161676 -3.85363812 0 0 Z " fill="#020202" transform="translate(398.87890625,227.59375)"/>
<path d="M0 0 C6.85096338 4.23494606 11.72226737 9.98327951 14.49609375 17.54296875 C15.04112643 20.52621721 15.11568524 23.39082238 15.05859375 26.41796875 C15.0534375 27.2059082 15.04828125 27.99384766 15.04296875 28.80566406 C14.86353648 34.53569186 13.58644812 38.62263161 10.6328125 43.58203125 C8.93023944 46.51911606 8.7067052 48.24188936 9.49609375 51.54296875 C10.46279134 52.81889813 11.46745848 54.06642503 12.49609375 55.29296875 C15.78972601 59.31507497 16.06882083 62.24517632 15.8046875 67.34375 C15.49609375 69.54296875 15.49609375 69.54296875 14.49609375 72.54296875 C8.66986752 70.60089334 5.79714784 63.44389034 3.12109375 58.16796875 C0.97380074 53.0378252 0.74747113 48.02426312 1.49609375 42.54296875 C2.49609375 40.54296875 3.49609375 38.54296875 4.49609375 36.54296875 C5.13879881 32.74875379 5.31795468 29.31658373 4.49609375 25.54296875 C2.90341044 23.75011213 1.38596383 22.80767703 -0.70703125 21.65234375 C-2.50390625 20.54296875 -2.50390625 20.54296875 -4.50390625 17.48046875 C-7.08915058 13.68339115 -9.42410428 12.58286973 -13.50390625 10.54296875 C-14.16390625 10.21296875 -14.82390625 9.88296875 -15.50390625 9.54296875 C-22.34813328 8.77971857 -26.98926253 9.35183952 -32.50390625 13.54296875 C-36.51631697 17.45249714 -36.80123018 20.90787132 -36.94140625 26.29296875 C-36.70845202 33.64655717 -36.20161579 41.17566697 -30.81640625 46.66796875 C-29.67171875 47.59609375 -29.67171875 47.59609375 -28.50390625 48.54296875 C-28.93703125 47.75792969 -29.37015625 46.97289062 -29.81640625 46.1640625 C-35.50599393 35.43023389 -35.50599393 35.43023389 -34.50390625 29.54296875 C-33.84390625 28.55296875 -33.18390625 27.56296875 -32.50390625 26.54296875 C-29.41848252 26.83010632 -27.93293499 27.05740916 -25.84375 29.421875 C-21.52624657 37.68406123 -20.19059395 45.78462165 -19.14819336 55.00024414 C-18.28057541 61.66988921 -16.86940803 66.21960017 -11.50390625 70.54296875 C-8.13270489 72.48104363 -5.6435472 72.78697048 -1.75390625 72.91796875 C4.82585973 73.37590118 9.52210493 74.94072854 14.49609375 79.29296875 C16.01606826 82.71291141 16.13675319 85.91488651 15.49609375 89.54296875 C12.51079963 95.20473346 12.51079963 95.20473346 8.49609375 96.54296875 C3.43973423 97.07384299 -0.38554412 97.1326506 -4.94140625 94.73046875 C-10.6353051 89.86982339 -10.6353051 89.86982339 -11.75390625 85.35546875 C-14.4372898 76.80479061 -20.79368046 71.61747832 -28.50390625 67.54296875 C-29.59703125 67.02734375 -30.69015625 66.51171875 -31.81640625 65.98046875 C-34.74077579 64.41627109 -35.80381033 63.35010388 -37.50390625 60.54296875 C-37.734375 58.203125 -37.734375 58.203125 -37.69140625 55.60546875 C-38.07522039 49.09807447 -41.02234189 44.80369345 -44.59375 39.5859375 C-49.33319962 32.03577134 -49.77709006 23.21874382 -48.50390625 14.54296875 C-45.50272636 6.0138803 -38.8657753 0.19430092 -31.31640625 -4.39453125 C-20.2506751 -7.47842354 -9.9781983 -5.17894311 0 0 Z " fill="#080808" transform="translate(279.50390625,212.45703125)"/>
<path d="M0 0 C1.29272461 2.13867188 1.29272461 2.13867188 2.40234375 4.96875 C2.81540771 6.00708984 3.22847168 7.04542969 3.65405273 8.11523438 C4.07759033 9.23220703 4.50112793 10.34917969 4.9375 11.5 C5.37843994 12.63244141 5.81937988 13.76488281 6.27368164 14.93164062 C9.6879527 23.83766597 12.49187152 32.80698363 15 42 C16.18675822 45.88239473 17.41933344 49.69455986 19.0703125 53.40625 C21.68776952 59.33671205 23.11352324 64.4988239 22 71 C19.82703 75.34594 17.22346243 78.55977726 13 81 C9.96805569 81.31646557 7.03540036 81.23807062 4 81 C4.05800781 80.39671875 4.11601563 79.7934375 4.17578125 79.171875 C4.31508141 76.70427209 4.33854149 74.45019402 4 72 C0.24173639 67.81222054 -4.14125881 66.17005505 -9.671875 65.6640625 C-11.03100243 65.63503549 -12.39056475 65.62260382 -13.75 65.625 C-14.4601123 65.62298584 -15.17022461 65.62097168 -15.90185547 65.61889648 C-21.06021064 65.71848091 -24.68269531 66.75028658 -29.16796875 69.16015625 C-31 70 -31 70 -34.4375 70 C-37 69 -37 69 -38.375 67.3125 C-39.21766654 64.1946338 -39.5072338 62.23361549 -39 59 C-36.84960324 55.78100117 -34.49835412 52.74917706 -31 51 C-28.95944995 50.92934383 -26.91665743 50.91578024 -24.875 50.9375 C-23.77929688 50.94652344 -22.68359375 50.95554687 -21.5546875 50.96484375 C-20.29011719 50.98224609 -20.29011719 50.98224609 -19 51 C-21.12131012 48.8322994 -22.84064162 47.13934456 -25.94189453 46.76660156 C-28.92455793 46.8420079 -31.87868758 47.06310067 -34.84960938 47.33203125 C-37.06640625 47.4453125 -37.06640625 47.4453125 -41 47 C-43.98161466 43.69429679 -44.9489001 41.95386472 -45.1875 37.5 C-43.61727309 32.87196278 -41.04277702 30.63045317 -37 28 C-33.90455209 26.96818403 -31.61844348 26.9005004 -28.375 26.8125 C-21.90472605 26.30333801 -17.74169552 24.41017867 -13 20 C-8.08929208 13.9843828 -8.2276972 7.57093187 -8 0 C-4.95200907 -0.97971137 -2.98760135 -1.24571107 0 0 Z " fill="#040404" transform="translate(516,252)"/>
<path d="M0 0 C0.66 0 1.32 0 2 0 C2.86449165 11.0222686 -1.01222951 21.53283666 -8 30 C-13.55139051 36.46107215 -20.0075962 41.42149189 -26.94702148 46.28271484 C-29.90472702 48.36794874 -31.97075783 49.95613674 -34 53 C-34 61.91150486 -30.67362914 69.90706395 -24.70703125 76.5546875 C-23.14487923 78.06842046 -21.57362183 79.57282938 -19.9921875 81.06640625 C-15.63274936 85.29762562 -14.8261581 88.91186254 -14.625 94.8125 C-14.89147378 103.79488711 -17.33567638 111.69483154 -24 118 C-31.33954123 123.22395688 -38.90714078 124.69467468 -47.61254883 125.88574219 C-53.49362573 126.74396289 -57.28267208 128.24539207 -62 132 C-63.485 132.99 -63.485 132.99 -65 134 C-66.12887908 131.74224185 -66.26390612 130.26243075 -66.375 127.75 C-66.44847656 126.62851562 -66.44847656 126.62851562 -66.5234375 125.484375 C-65.59833643 121.09359677 -62.71637859 118.25734168 -59.20166016 115.68261719 C-57.20309829 114.40245322 -55.17852378 113.18989228 -53.125 112 C-42.15486395 105.83018405 -42.15486395 105.83018405 -35 96 C-34.95130452 89.00071333 -37.29436822 82.86180416 -39.8125 76.4375 C-49.41345256 50.95425738 -49.41345256 50.95425738 -48 40 C-43.54743467 30.285312 -32.54969822 23.79616475 -24.0234375 17.8359375 C-19.18650068 14.44934175 -14.4387053 10.94286735 -9.6875 7.4375 C-8.84453369 6.81721924 -8.00156738 6.19693848 -7.13305664 5.55786133 C-3.42239125 2.95132135 -3.42239125 2.95132135 0 0 Z " fill="#040404" transform="translate(138,290)"/>
<path d="M0 0 C0.33 0 0.66 0 1 0 C1.49553171 11.98911447 1.65861706 20.96843625 -6.47680664 30.55249023 C-9.70507491 33.62035408 -13.90682979 35.08363409 -17.94140625 36.83398438 C-27.6004126 41.2771273 -32.09562283 48.24094481 -36.8125 57.5 C-40.49119731 64.47796695 -44.2504112 71.30622705 -48.625 77.875 C-49.03854736 78.50470703 -49.45209473 79.13441406 -49.87817383 79.78320312 C-50.86087884 81.22987717 -51.92273064 82.62229696 -53 84 C-53.66 84 -54.32 84 -55 84 C-59.11253551 69.34909224 -57.5642117 55.95699882 -50.25 42.6875 C-44.28858504 33.43396035 -37.0348191 29.88946477 -27 26 C-15.02156156 20.82200067 -8.59498385 14.19364826 -2 3 C-1.34 2.01 -0.68 1.02 0 0 Z " fill="#070707" transform="translate(356,199)"/>
<path d="M0 0 C1.14597656 0.55429688 2.29195313 1.10859375 3.47265625 1.6796875 C5.00246734 2.41174434 6.53242298 3.14349916 8.0625 3.875 C8.81466797 4.23980469 9.56683594 4.60460937 10.34179688 4.98046875 C14.8408367 7.12286867 19.16661291 8.78042026 24 10 C24 10.33 24 10.66 24 11 C20.77100574 11.0875127 17.54231884 11.14056146 14.3125 11.1875 C12.94448242 11.22520508 12.94448242 11.22520508 11.54882812 11.26367188 C2.90828234 11.35793237 2.90828234 11.35793237 -1 8 C-1.9375 5.5 -1.9375 5.5 -2 3 C-1.34 2.01 -0.68 1.02 0 0 Z " fill="#131313" transform="translate(444,245)"/>
<path d="M0 0 C2.29289798 1.96534113 3.99907894 3.72078947 5.625 6.25 C5.295 6.91 4.965 7.57 4.625 8.25 C3.3565625 7.321875 3.3565625 7.321875 2.0625 6.375 C-7.11127451 0.40039397 -18.96305786 1.26677293 -29.375 3.25 C-23.56556793 -2.55943207 -7.01801478 -3.63897063 0 0 Z " fill="#343434" transform="translate(472.375,226.75)"/>
<path d="M0 0 C0.26425781 0.53367188 0.52851563 1.06734375 0.80078125 1.6171875 C1.69874805 3.4014212 2.61604707 5.17594808 3.54296875 6.9453125 C4.08566406 7.99460938 4.62835938 9.04390625 5.1875 10.125 C5.73792969 11.17945313 6.28835937 12.23390625 6.85546875 13.3203125 C7.23316406 14.20460938 7.61085937 15.08890625 8 16 C7.67 16.66 7.34 17.32 7 18 C0.00872939 10.37116069 0.00872939 10.37116069 -1 6 C-0.625 2.6875 -0.625 2.6875 0 0 Z " fill="#D6D6D6" transform="translate(244,245)"/>
<path d="M0 0 C0.33 0 0.66 0 1 0 C1 7.59 1 15.18 1 23 C0.67 23 0.34 23 0 23 C-0.06058594 22.39671875 -0.12117187 21.7934375 -0.18359375 21.171875 C-0.26738281 20.37265625 -0.35117188 19.5734375 -0.4375 18.75 C-0.51871094 17.96109375 -0.59992188 17.1721875 -0.68359375 16.359375 C-0.93099521 14.04016896 -0.93099521 14.04016896 -1.59375 12.03125 C-2.12508068 9.37459662 -1.65148365 7.3831034 -1.0625 4.75 C-0.86785156 3.85796875 -0.67320312 2.9659375 -0.47265625 2.046875 C-0.31667969 1.37140625 -0.16070312 0.6959375 0 0 Z " fill="#282828" transform="translate(217,232)"/>
<path d="M0 0 C0.66 0.33 1.32 0.66 2 1 C1.67 1.33 1.34 1.66 1 2 C1.66 2.66 2.32 3.32 3 4 C-0.63 4.33 -4.26 4.66 -8 5 C-5.56159764 2.56159764 -3.14759102 1.37707107 0 0 Z " fill="#303030" transform="translate(503,491)"/>
<path d="M0 0 C0.66 0.33 1.32 0.66 2 1 C-0.37823834 5.84455959 -0.37823834 5.84455959 -2 8 C-4.75 8.9375 -4.75 8.9375 -7 9 C-6.02180976 7.68677212 -5.0424189 6.37443848 -4.0625 5.0625 C-3.51722656 4.33160156 -2.97195313 3.60070312 -2.41015625 2.84765625 C-1 1 -1 1 0 0 Z " fill="#3B3B3B" transform="translate(416,352)"/>
<path d="M0 0 C3 1 3 1 4.75 3.4375 C5.36875 4.7059375 5.36875 4.7059375 6 6 C5.67 6.66 5.34 7.32 5 8 C2.5 5.6875 2.5 5.6875 0 3 C0 2.01 0 1.02 0 0 Z " fill="#DEDEDE" transform="translate(246,255)"/>
<path d="M0 0 C2 3 2 3 1.875 4.9375 C1 7 1 7 -3 11 C-2.01 7.37 -1.02 3.74 0 0 Z " fill="#464646" transform="translate(517,365)"/>
</svg>
